<svg width="1480" height="1589" viewBox="0 0 1480 1589" fill="none" xmlns="http://www.w3.org/2000/svg">
    <path d="M1305.11 147.898L1252.15 225.095C1395.59 375.724 1476.8 575.007 1479.48 782.992C1482.17 990.976 1406.14 1192.29 1266.64 1346.58C1199.78 1419.87 1118.47 1478.55 1027.84 1518.92C937.214 1559.29 839.214 1580.48 740.001 1581.16C616.569 1580.87 495.371 1548.22 388.493 1486.48L318.79 1588.41L112.182 1451L195.375 1326.09C68.3962 1177.28 -0.931717 987.825 0.00945828 792.206C0.00945828 364.25 326.285 4.99657 740.001 4.99657C842.488 4.99248 943.724 27.5083 1036.55 70.9513L1084.02 0L1305.11 147.898ZM269.325 792.955C269.088 897.961 298.44 1000.91 354.016 1090L883.902 298.795C837.695 282.383 789.036 273.935 740.001 273.812C484.177 274.062 269.325 499.657 269.325 792.955ZM740.001 1312.1C802.177 1311.56 863.56 1298.08 920.248 1272.54C976.935 1246.99 1027.69 1209.92 1069.27 1163.7C1160.93 1062.04 1211.35 929.833 1210.68 792.955C1211.88 669.972 1171.56 550.178 1096.26 452.939L541.138 1263.63C602.592 1295.47 670.79 1312.09 740.001 1312.1Z" fill="#E83E3B"/>
</svg>
