<svg width="42" height="40" viewBox="0 0 42 40" fill="none" xmlns="http://www.w3.org/2000/svg">
<path d="M31.1973 0H10.4132C4.67125 0 0 4.67262 0 10.4163V29.4363C0 35.18 4.67125 39.8526 10.4132 39.8526H31.1973C36.9393 39.8526 41.6106 35.18 41.6106 29.4363V10.4163C41.6106 4.67262 36.9393 0 31.1973 0ZM3.67346 10.4163C3.67346 6.69939 6.69741 3.67454 10.4132 3.67454H31.1973C34.9132 3.67454 37.9371 6.69939 37.9371 10.4163V29.4363C37.9371 33.1533 34.9132 36.1781 31.1973 36.1781H10.4132C6.69741 36.1781 3.67346 33.1533 3.67346 29.4363V10.4163Z" fill="white"/>
<path d="M20.806 29.6114C26.1455 29.6114 30.492 25.2659 30.492 19.9224C30.492 14.5789 26.1479 10.2335 20.806 10.2335C15.464 10.2335 11.1199 14.5789 11.1199 19.9224C11.1199 25.2659 15.464 29.6114 20.806 29.6114ZM20.806 13.9104C24.1217 13.9104 26.8186 16.6081 26.8186 19.9248C26.8186 23.2415 24.1217 25.9392 20.806 25.9392C17.4902 25.9392 14.7933 23.2415 14.7933 19.9248C14.7933 16.6081 17.4902 13.9104 20.806 13.9104Z" fill="white"/>
<path d="M31.3881 11.8009C32.8259 11.8009 33.9979 10.631 33.9979 9.19039C33.9979 7.74976 32.8283 6.57983 31.3881 6.57983C29.9479 6.57983 28.7783 7.74976 28.7783 9.19039C28.7783 10.631 29.9479 11.8009 31.3881 11.8009Z" fill="white"/>
</svg>
