<svg width="470" height="140" viewBox="0 0 470 140" fill="none" xmlns="http://www.w3.org/2000/svg">
<path d="M81.4436 32.8468H63.7392C63.7392 11.9727 18.3614 11.9727 18.3614 32.8468C18.1852 34.3372 18.5654 35.8401 19.4289 37.0676C20.4392 38.2221 21.7452 39.0795 23.2063 39.5475C27.4106 41.1899 35.1953 42.0767 43.5713 42.8322C51.9472 43.5877 60.9472 44.1461 69.2903 47.8578C73.9623 49.9998 77.9209 53.4384 80.6955 57.7648C83.4701 62.0912 84.9439 67.1233 84.9418 72.2629C84.9418 116.803 0 116.803 0 72.2629H17.688C17.688 92.3652 67.2374 92.3652 67.2374 72.2629C67.2374 66.4162 66.2355 65.9563 62.0804 64.0512C57.9253 62.1461 50.3049 61.21 42.0439 60.4874C33.7829 59.7647 24.8979 59.3213 16.6369 56.0202C12.1863 54.3668 8.27309 51.527 5.32118 47.8085C2.19158 43.4567 0.56044 38.2059 0.673359 32.8468C0.673359 10.9708 20.8577 0 41.0585 0C61.2593 0 81.4436 10.9708 81.4436 32.8468Z" fill="white"/>
<path d="M177.668 10.4126L174.186 15.4874C183.616 25.3896 188.954 38.4901 189.131 52.1628C189.308 65.8354 184.31 79.0695 175.139 89.212C170.743 94.0306 165.399 97.888 159.441 100.542C153.483 103.196 147.04 104.589 140.518 104.634C132.404 104.614 124.437 102.468 117.411 98.4091L112.828 105.11L99.2463 96.077L104.715 87.8653C96.3679 78.0828 91.8103 65.6283 91.8722 52.7685C91.8722 24.6353 113.321 1.01841 140.518 1.01841C147.256 1.01814 153.911 2.4983 160.013 5.35418L163.133 0.689941L177.668 10.4126ZM109.577 52.8178C109.561 59.7207 111.491 66.4884 115.144 72.3452L149.978 20.3323C146.941 19.2534 143.742 18.6981 140.518 18.69C123.701 18.7064 109.577 33.5367 109.577 52.8178ZM140.518 86.9456C144.606 86.91 148.641 86.0242 152.367 84.3447C156.094 82.6652 159.43 80.2287 162.164 77.1901C168.19 70.5069 171.504 61.816 171.46 52.8178C171.539 44.733 168.889 36.8579 163.938 30.4655L127.445 83.7595C131.485 85.8523 135.968 86.945 140.518 86.9456Z" fill="white"/>
<path d="M233.017 0.689941C254.679 0.689941 268.245 17.4254 268.245 33.8488C268.131 40.4651 266.054 46.8986 262.28 52.3338C258.505 57.7691 253.202 61.9615 247.043 64.3799C249.079 67.3525 250.902 70.3744 252.742 73.2321C255.829 78.0113 270.249 113.19 275.324 117.772C276.811 119.195 278.573 120.299 280.502 121.016C282.431 121.733 284.486 122.049 286.541 121.944V139.599C278.272 139.69 270.252 136.772 263.975 131.387C255.648 124.03 241.245 88.0624 237.895 82.8726C235.272 78.4889 232.381 74.271 229.24 70.243C226.809 67.5003 225.807 66.9583 224.313 66.9583H216.265V102.039H198.511V49.2703H233.001C246.517 49.2703 250.541 41.6827 250.541 33.8159C250.541 25.9491 246.517 18.3615 233.001 18.3615H198.511V0.689941H233.017Z" fill="white"/>
<path d="M361.628 32.8468H343.94C343.94 11.9727 298.562 11.9727 298.562 32.8468C298.386 34.3372 298.766 35.8401 299.63 37.0676C300.636 38.219 301.936 39.0761 303.391 39.5475C307.612 41.1899 315.396 42.0767 323.756 42.8322C332.115 43.5877 341.148 44.1461 349.475 47.8578C354.147 49.9998 358.105 53.4384 360.88 57.7648C363.655 62.0912 365.128 67.1233 365.126 72.2629C365.126 116.869 280.201 116.869 280.201 72.2629H297.889C297.889 92.3652 347.438 92.3652 347.438 72.2629C347.438 66.4162 346.42 65.9563 342.281 64.0512C338.143 62.1461 330.506 61.21 322.228 60.4874C313.951 59.7647 305.099 59.3213 296.838 56.0202C292.385 54.3713 288.471 51.5307 285.522 47.8085C282.381 43.4607 280.738 38.2096 280.841 32.8468C280.841 10.9216 301.026 0 321.227 0C341.427 0 361.628 10.9708 361.628 32.8468Z" fill="white"/>
<path d="M469.348 52.816C469.421 66.2774 464.419 79.2722 455.339 89.2102C450.97 94.0637 445.629 97.9445 439.663 100.601C433.698 103.257 427.24 104.63 420.71 104.63C414.18 104.63 407.722 103.257 401.757 100.601C395.791 97.9445 390.45 94.0637 386.081 89.2102C377.001 79.2722 371.999 66.2774 372.072 52.816C372.072 24.6334 393.57 1.0166 420.718 1.0166C447.866 1.0166 469.348 24.6334 469.348 52.816ZM389.76 52.816C389.712 61.8209 393.04 70.5168 399.089 77.1883C401.799 80.2554 405.131 82.7114 408.863 84.3936C412.595 86.0758 416.641 86.9457 420.735 86.9457C424.828 86.9457 428.875 86.0758 432.606 84.3936C436.338 82.7114 439.67 80.2554 442.381 77.1883C448.394 70.5002 451.697 61.8098 451.643 52.816C451.643 33.5349 437.503 18.7046 420.702 18.7046C403.901 18.7046 389.76 33.5349 389.76 52.816Z" fill="white"/>
</svg>
