<svg width="429" height="183" viewBox="0 0 429 183" fill="none" xmlns="http://www.w3.org/2000/svg">
<path d="M12.12 35H69V45.8H23.88V71.6H65.88V82.4H23.88V108.2H69V119H12.12V35ZM77.5256 57.2H89.2856L111.366 110.12H111.606L132.486 57.2H144.006L119.046 119H103.686L77.5256 57.2ZM187.087 120.68C179.727 120.68 173.327 119.28 167.887 116.48C162.527 113.68 158.407 109.84 155.527 104.96C152.647 100 151.207 94.4 151.207 88.16C151.207 81.84 152.607 76.2 155.407 71.24C158.207 66.28 162.167 62.44 167.287 59.72C172.407 56.92 178.287 55.52 184.927 55.52C195.087 55.52 202.967 58.52 208.567 64.52C214.167 70.44 216.887 78.52 216.727 88.76L163.807 96.32C166.687 105.84 174.487 110.6 187.207 110.6C194.647 110.6 202.967 109 212.167 105.8V116.12C208.247 117.64 204.327 118.76 200.407 119.48C196.487 120.28 192.047 120.68 187.087 120.68ZM205.207 81.56C204.567 76.44 202.527 72.52 199.087 69.8C195.727 67.08 191.007 65.72 184.927 65.72C177.727 65.72 172.247 67.6 168.487 71.36C164.727 75.12 162.807 80.52 162.727 87.56L205.207 81.56ZM232.859 57.2H244.019L242.699 74.48H242.939C244.539 68.56 247.619 63.92 252.179 60.56C256.819 57.2 262.339 55.52 268.739 55.52C276.979 55.52 283.419 58.2 288.059 63.56C292.699 68.92 295.019 76.36 295.019 85.88V119H283.859V86.48C283.859 80 282.139 74.92 278.699 71.24C275.259 67.56 270.579 65.72 264.659 65.72C258.499 65.72 253.499 67.68 249.659 71.6C245.899 75.52 244.019 80.68 244.019 87.08V119H232.859V57.2ZM340.387 120.68C332.227 120.68 326.267 118.6 322.507 114.44C318.827 110.28 316.987 103.68 316.987 94.64V67.4H307.387V59.12H308.587C311.707 59.12 314.067 58.04 315.667 55.88C317.347 53.72 318.387 50.52 318.787 46.28L318.907 44.72H328.147V57.2H356.227V67.4H328.147V94.4C328.147 100.24 329.187 104.4 331.267 106.88C333.347 109.36 336.747 110.6 341.467 110.6C346.107 110.6 351.427 109.6 357.427 107.6V117.92C352.067 119.76 346.387 120.68 340.387 120.68ZM396.167 120.68C387.847 120.68 379.247 118.96 370.367 115.52V105.2C379.407 108.8 388.087 110.6 396.407 110.6C406.727 110.6 411.887 108.24 411.887 103.52C411.887 101.2 410.487 99.16 407.687 97.4C404.887 95.64 400.327 93.92 394.007 92.24C385.207 89.92 378.967 87.28 375.287 84.32C371.607 81.36 369.767 77.48 369.767 72.68C369.767 67.16 371.887 62.92 376.127 59.96C380.367 57 386.487 55.52 394.487 55.52C397.847 55.52 401.287 55.84 404.807 56.48C408.327 57.04 413.127 58.12 419.207 59.72V70.16C413.687 68.56 409.007 67.44 405.167 66.8C401.327 66.08 397.847 65.72 394.727 65.72C390.327 65.72 386.967 66.32 384.647 67.52C382.407 68.72 381.287 70.44 381.287 72.68C381.287 74.84 382.567 76.72 385.127 78.32C387.687 79.92 392.007 81.48 398.087 83C407.127 85.24 413.567 87.88 417.407 90.92C421.327 93.88 423.287 97.76 423.287 102.56C423.287 108.24 420.887 112.68 416.087 115.88C411.287 119.08 404.647 120.68 396.167 120.68Z" fill="white"/>
<path d="M13.03 148H21.88C25.4 148 28.13 148.92 30.07 150.76C32.03 152.6 33.01 155.18 33.01 158.5C33.01 161.82 32.03 164.4 30.07 166.24C28.13 168.08 25.4 169 21.88 169H13.03V148ZM21.79 166.3C24.49 166.3 26.53 165.64 27.91 164.32C29.29 163 29.98 161.06 29.98 158.5C29.98 155.94 29.29 154 27.91 152.68C26.53 151.36 24.49 150.7 21.79 150.7H15.97V166.3H21.79ZM37.9323 148H40.8723V169H37.9323V148ZM54.3665 169.42C52.7065 169.42 51.2265 169.31 49.9265 169.09C48.6265 168.87 47.3665 168.51 46.1465 168.01V165.1C48.5465 166.18 51.2765 166.72 54.3365 166.72C56.0565 166.72 57.2865 166.51 58.0265 166.09C58.7865 165.65 59.1665 164.93 59.1665 163.93C59.1665 163.01 58.7865 162.23 58.0265 161.59C57.2665 160.93 55.9565 160.27 54.0965 159.61L53.0765 159.25C51.5365 158.71 50.2965 158.22 49.3565 157.78C48.4365 157.32 47.6465 156.71 46.9865 155.95C46.3465 155.17 46.0265 154.2 46.0265 153.04C46.0265 151.3 46.6665 149.96 47.9465 149.02C49.2265 148.06 51.0465 147.58 53.4065 147.58C54.6065 147.58 55.8265 147.68 57.0665 147.88C58.3265 148.08 59.7165 148.39 61.2365 148.81V151.72C59.6565 151.22 58.2465 150.86 57.0065 150.64C55.7665 150.4 54.5465 150.28 53.3465 150.28C51.9865 150.28 50.9265 150.53 50.1665 151.03C49.4265 151.51 49.0565 152.19 49.0565 153.07C49.0565 153.69 49.2865 154.23 49.7465 154.69C50.2065 155.13 50.7865 155.52 51.4865 155.86C52.2065 156.18 53.1765 156.56 54.3965 157L54.9965 157.24C57.5965 158.2 59.4465 159.19 60.5465 160.21C61.6665 161.23 62.2265 162.47 62.2265 163.93C62.2265 165.05 61.9065 166.02 61.2665 166.84C60.6265 167.66 59.7065 168.3 58.5065 168.76C57.3265 169.2 55.9465 169.42 54.3665 169.42ZM76.747 169.42C74.667 169.42 72.787 168.97 71.107 168.07C69.447 167.15 68.137 165.87 67.177 164.23C66.217 162.57 65.737 160.66 65.737 158.5C65.737 156.34 66.217 154.44 67.177 152.8C68.137 151.14 69.447 149.86 71.107 148.96C72.787 148.04 74.667 147.58 76.747 147.58C77.687 147.58 78.697 147.66 79.777 147.82C80.877 147.96 81.947 148.17 82.987 148.45V151.36C81.947 151.02 80.877 150.76 79.777 150.58C78.677 150.38 77.667 150.28 76.747 150.28C75.187 150.28 73.807 150.6 72.607 151.24C71.407 151.88 70.467 152.82 69.787 154.06C69.127 155.3 68.797 156.78 68.797 158.5C68.797 160.22 69.127 161.7 69.787 162.94C70.447 164.18 71.377 165.12 72.577 165.76C73.777 166.4 75.157 166.72 76.717 166.72C77.677 166.72 78.717 166.63 79.837 166.45C80.977 166.27 82.107 166.01 83.227 165.67V168.58C82.327 168.84 81.267 169.04 80.047 169.18C78.847 169.34 77.747 169.42 76.747 169.42ZM96.8139 169.42C94.7339 169.42 92.8639 168.97 91.2039 168.07C89.5439 167.15 88.2339 165.87 87.2739 164.23C86.3339 162.57 85.8639 160.66 85.8639 158.5C85.8639 156.34 86.3339 154.44 87.2739 152.8C88.2339 151.14 89.5439 149.86 91.2039 148.96C92.8639 148.04 94.7339 147.58 96.8139 147.58C98.8939 147.58 100.754 148.04 102.394 148.96C104.054 149.86 105.354 151.14 106.294 152.8C107.254 154.44 107.734 156.34 107.734 158.5C107.734 160.66 107.254 162.57 106.294 164.23C105.354 165.87 104.054 167.15 102.394 168.07C100.754 168.97 98.8939 169.42 96.8139 169.42ZM96.8139 166.72C98.3739 166.72 99.7439 166.4 100.924 165.76C102.124 165.12 103.054 164.18 103.714 162.94C104.374 161.7 104.704 160.22 104.704 158.5C104.704 156.78 104.374 155.3 103.714 154.06C103.054 152.82 102.124 151.88 100.924 151.24C99.7439 150.6 98.3739 150.28 96.8139 150.28C95.2539 150.28 93.8739 150.6 92.6739 151.24C91.4939 151.88 90.5739 152.82 89.9139 154.06C89.2539 155.3 88.9239 156.78 88.9239 158.5C88.9239 160.22 89.2539 161.7 89.9139 162.94C90.5739 164.18 91.4939 165.12 92.6739 165.76C93.8739 166.4 95.2539 166.72 96.8139 166.72ZM109.561 148H112.621L119.671 165.76H119.731L126.841 148H129.841L121.351 169H117.961L109.561 148ZM133.323 148H147.543V150.7H136.263V157.15H146.763V159.85H136.263V166.3H147.543V169H133.323V148ZM152.542 148H159.982C163.142 148 165.452 148.55 166.912 149.65C168.392 150.73 169.132 152.36 169.132 154.54C169.132 155.58 168.842 156.51 168.262 157.33C167.682 158.13 166.932 158.77 166.012 159.25C165.092 159.71 164.162 159.98 163.222 160.06V160.12C164.382 160.24 165.262 160.57 165.862 161.11C166.482 161.65 167.042 162.46 167.542 163.54L170.152 169H166.672L164.722 164.38C164.262 163.32 163.632 162.55 162.832 162.07C162.052 161.59 161.022 161.35 159.742 161.35H155.482V169H152.542V148ZM159.562 158.71C161.882 158.71 163.552 158.39 164.572 157.75C165.592 157.11 166.102 156.06 166.102 154.6C166.102 153.64 165.902 152.88 165.502 152.32C165.102 151.74 164.442 151.32 163.522 151.06C162.622 150.78 161.402 150.64 159.862 150.64H155.482V158.71H159.562ZM186.125 153.07H186.065L186.215 158.53V169H183.275L183.245 148H186.665L195.305 164.08L203.885 148H207.305L207.275 169H204.335V158.53L204.455 153.07H204.395L195.335 169.42H195.215L186.125 153.07ZM223.142 169.42C221.062 169.42 219.192 168.97 217.532 168.07C215.872 167.15 214.562 165.87 213.602 164.23C212.662 162.57 212.192 160.66 212.192 158.5C212.192 156.34 212.662 154.44 213.602 152.8C214.562 151.14 215.872 149.86 217.532 148.96C219.192 148.04 221.062 147.58 223.142 147.58C225.222 147.58 227.082 148.04 228.722 148.96C230.382 149.86 231.682 151.14 232.622 152.8C233.582 154.44 234.062 156.34 234.062 158.5C234.062 160.66 233.582 162.57 232.622 164.23C231.682 165.87 230.382 167.15 228.722 168.07C227.082 168.97 225.222 169.42 223.142 169.42ZM223.142 166.72C224.702 166.72 226.072 166.4 227.252 165.76C228.452 165.12 229.382 164.18 230.042 162.94C230.702 161.7 231.032 160.22 231.032 158.5C231.032 156.78 230.702 155.3 230.042 154.06C229.382 152.82 228.452 151.88 227.252 151.24C226.072 150.6 224.702 150.28 223.142 150.28C221.582 150.28 220.202 150.6 219.002 151.24C217.822 151.88 216.902 152.82 216.242 154.06C215.582 155.3 215.252 156.78 215.252 158.5C215.252 160.22 215.582 161.7 216.242 162.94C216.902 164.18 217.822 165.12 219.002 165.76C220.202 166.4 221.582 166.72 223.142 166.72ZM238.968 148H246.408C249.568 148 251.878 148.55 253.338 149.65C254.818 150.73 255.558 152.36 255.558 154.54C255.558 155.58 255.268 156.51 254.688 157.33C254.108 158.13 253.358 158.77 252.438 159.25C251.518 159.71 250.588 159.98 249.648 160.06V160.12C250.808 160.24 251.688 160.57 252.288 161.11C252.908 161.65 253.468 162.46 253.968 163.54L256.578 169H253.098L251.148 164.38C250.688 163.32 250.058 162.55 249.258 162.07C248.478 161.59 247.448 161.35 246.168 161.35H241.908V169H238.968V148ZM245.988 158.71C248.308 158.71 249.978 158.39 250.998 157.75C252.018 157.11 252.528 156.06 252.528 154.6C252.528 153.64 252.328 152.88 251.928 152.32C251.528 151.74 250.868 151.32 249.948 151.06C249.048 150.78 247.828 150.64 246.288 150.64H241.908V158.71H245.988ZM260.354 148H274.574V150.7H263.294V157.15H273.794V159.85H263.294V166.3H274.574V169H260.354V148Z" fill="white"/>
<path d="M314.083 158H294.25" stroke="white" stroke-width="1.41667" stroke-linecap="round" stroke-linejoin="round"/>
<path d="M320.66 157.696L315.8 154.78C315.044 154.327 314.083 154.871 314.083 155.752V160.248C314.083 161.129 315.044 161.673 315.8 161.22L320.66 158.304C320.89 158.166 320.89 157.834 320.66 157.696Z" fill="white"/>
</svg>
