<svg width="570" height="183" viewBox="0 0 570 183" fill="none" xmlns="http://www.w3.org/2000/svg">
<path d="M23.64 55.28H23.4L24 77.12V119H12.24L12.12 35H25.8L60.36 99.32L94.68 35H108.36L108.24 119H96.48V77.12L96.96 55.28H96.72L60.48 120.68H60L23.64 55.28ZM130.789 57.2H141.949V119H130.789V57.2ZM136.309 47.72C134.229 47.72 132.429 47 130.909 45.56C129.469 44.04 128.749 42.24 128.749 40.16C128.749 38.08 129.469 36.32 130.909 34.88C132.429 33.36 134.229 32.6 136.309 32.6C138.389 32.6 140.149 33.36 141.589 34.88C143.109 36.32 143.869 38.08 143.869 40.16C143.869 42.24 143.109 44.04 141.589 45.56C140.149 47 138.389 47.72 136.309 47.72ZM187.749 94.4L167.949 119H153.909L180.429 87.32L154.989 57.2H168.549L187.869 80.24L207.069 57.2H220.749L195.429 87.2L221.829 119H207.909L187.749 94.4ZM263.247 120.68C256.527 120.68 250.447 119.32 245.007 116.6C239.647 113.8 235.447 109.92 232.407 104.96C229.367 100 227.847 94.4 227.847 88.16C227.847 81.92 229.367 76.32 232.407 71.36C235.447 66.4 239.647 62.52 245.007 59.72C250.447 56.92 256.527 55.52 263.247 55.52C269.887 55.52 275.887 56.92 281.247 59.72C286.607 62.52 290.807 66.4 293.847 71.36C296.887 76.32 298.407 81.92 298.407 88.16C298.407 94.4 296.887 100 293.847 104.96C290.807 109.92 286.607 113.8 281.247 116.6C275.887 119.32 269.887 120.68 263.247 120.68ZM263.247 110.6C267.967 110.6 272.127 109.64 275.727 107.72C279.327 105.8 282.087 103.16 284.007 99.8C285.927 96.36 286.887 92.44 286.887 88.04C286.887 83.72 285.927 79.88 284.007 76.52C282.087 73.08 279.327 70.44 275.727 68.6C272.127 66.68 267.967 65.72 263.247 65.72C255.967 65.72 250.167 67.8 245.847 71.96C241.527 76.04 239.367 81.4 239.367 88.04C239.367 94.76 241.527 100.2 245.847 104.36C250.167 108.52 255.967 110.6 263.247 110.6ZM315.242 35L326.402 32.6V119H315.242V35ZM378.443 120.68C371.723 120.68 365.643 119.32 360.203 116.6C354.843 113.8 350.643 109.92 347.603 104.96C344.563 100 343.043 94.4 343.043 88.16C343.043 81.92 344.563 76.32 347.603 71.36C350.643 66.4 354.843 62.52 360.203 59.72C365.643 56.92 371.723 55.52 378.443 55.52C385.083 55.52 391.083 56.92 396.443 59.72C401.803 62.52 406.003 66.4 409.043 71.36C412.083 76.32 413.603 81.92 413.603 88.16C413.603 94.4 412.083 100 409.043 104.96C406.003 109.92 401.803 113.8 396.443 116.6C391.083 119.32 385.083 120.68 378.443 120.68ZM378.443 110.6C383.163 110.6 387.323 109.64 390.923 107.72C394.523 105.8 397.283 103.16 399.203 99.8C401.123 96.36 402.083 92.44 402.083 88.04C402.083 83.72 401.123 79.88 399.203 76.52C397.283 73.08 394.523 70.44 390.923 68.6C387.323 66.68 383.163 65.72 378.443 65.72C371.163 65.72 365.363 67.8 361.043 71.96C356.723 76.04 354.563 81.4 354.563 88.04C354.563 94.76 356.723 100.2 361.043 104.36C365.363 108.52 371.163 110.6 378.443 110.6ZM456.134 144.68C449.894 144.68 444.254 144.16 439.214 143.12C434.254 142.08 429.414 140.48 424.694 138.32V127.04C434.534 132.08 444.894 134.6 455.774 134.6C463.134 134.6 468.694 133.36 472.454 130.88C476.294 128.48 478.214 125.28 478.214 121.28C478.214 117.36 476.454 114.36 472.934 112.28C469.494 110.2 464.214 108.92 457.094 108.44C446.694 107.72 438.894 105.12 433.694 100.64C428.494 96.16 425.894 89.92 425.894 81.92C425.894 76.72 427.174 72.12 429.734 68.12C432.374 64.12 436.054 61.04 440.774 58.88C445.574 56.64 451.054 55.52 457.214 55.52C462.414 55.52 467.334 56.36 471.974 58.04C473.334 56.44 474.014 54.76 474.014 53C474.014 48.6 470.854 46.4 464.534 46.4C461.414 46.4 458.174 46.96 454.814 48.08V38.36C459.934 37.16 464.134 36.56 467.414 36.56C472.694 36.56 476.894 37.64 480.014 39.8C483.134 41.88 484.694 44.68 484.694 48.2C484.694 50.76 483.814 53.04 482.054 55.04C480.374 57.04 478.054 58.52 475.094 59.48C479.334 61.72 482.614 64.72 484.934 68.48C487.334 72.24 488.534 76.48 488.534 81.2C488.534 85.6 487.574 89.6 485.654 93.2C483.734 96.72 481.174 99.52 477.974 101.6C474.774 103.6 471.254 104.72 467.414 104.96V105.2C473.654 105.68 478.934 107.56 483.254 110.84C487.574 114.04 489.734 118.2 489.734 123.32C489.734 127.4 488.414 131.04 485.774 134.24C483.214 137.44 479.374 139.96 474.254 141.8C469.214 143.72 463.174 144.68 456.134 144.68ZM457.214 98.36C470.494 98.36 477.134 92.92 477.134 82.04C477.134 71.16 470.494 65.72 457.214 65.72C444.014 65.72 437.414 71.16 437.414 82.04C437.414 92.92 444.014 98.36 457.214 98.36ZM517.9 144.68C515.34 144.68 513.02 144.44 510.94 143.96C508.94 143.56 506.46 142.88 503.5 141.92V131.6C506.78 132.72 509.34 133.48 511.18 133.88C513.1 134.36 515.22 134.6 517.54 134.6C520.34 134.6 522.62 133.8 524.38 132.2C526.14 130.68 527.5 128.32 528.46 125.12L529.78 120.68L498.58 57.2H510.34L535.18 107.24L555.7 57.2H567.22L541.42 119L539.5 123.68C537.18 129.28 535.26 133.4 533.74 136.04C532.22 138.76 530.22 140.88 527.74 142.4C525.34 143.92 522.06 144.68 517.9 144.68Z" fill="white"/>
<path d="M13.03 148H21.88C25.4 148 28.13 148.92 30.07 150.76C32.03 152.6 33.01 155.18 33.01 158.5C33.01 161.82 32.03 164.4 30.07 166.24C28.13 168.08 25.4 169 21.88 169H13.03V148ZM21.79 166.3C24.49 166.3 26.53 165.64 27.91 164.32C29.29 163 29.98 161.06 29.98 158.5C29.98 155.94 29.29 154 27.91 152.68C26.53 151.36 24.49 150.7 21.79 150.7H15.97V166.3H21.79ZM37.9323 148H40.8723V169H37.9323V148ZM54.3665 169.42C52.7065 169.42 51.2265 169.31 49.9265 169.09C48.6265 168.87 47.3665 168.51 46.1465 168.01V165.1C48.5465 166.18 51.2765 166.72 54.3365 166.72C56.0565 166.72 57.2865 166.51 58.0265 166.09C58.7865 165.65 59.1665 164.93 59.1665 163.93C59.1665 163.01 58.7865 162.23 58.0265 161.59C57.2665 160.93 55.9565 160.27 54.0965 159.61L53.0765 159.25C51.5365 158.71 50.2965 158.22 49.3565 157.78C48.4365 157.32 47.6465 156.71 46.9865 155.95C46.3465 155.17 46.0265 154.2 46.0265 153.04C46.0265 151.3 46.6665 149.96 47.9465 149.02C49.2265 148.06 51.0465 147.58 53.4065 147.58C54.6065 147.58 55.8265 147.68 57.0665 147.88C58.3265 148.08 59.7165 148.39 61.2365 148.81V151.72C59.6565 151.22 58.2465 150.86 57.0065 150.64C55.7665 150.4 54.5465 150.28 53.3465 150.28C51.9865 150.28 50.9265 150.53 50.1665 151.03C49.4265 151.51 49.0565 152.19 49.0565 153.07C49.0565 153.69 49.2865 154.23 49.7465 154.69C50.2065 155.13 50.7865 155.52 51.4865 155.86C52.2065 156.18 53.1765 156.56 54.3965 157L54.9965 157.24C57.5965 158.2 59.4465 159.19 60.5465 160.21C61.6665 161.23 62.2265 162.47 62.2265 163.93C62.2265 165.05 61.9065 166.02 61.2665 166.84C60.6265 167.66 59.7065 168.3 58.5065 168.76C57.3265 169.2 55.9465 169.42 54.3665 169.42ZM76.747 169.42C74.667 169.42 72.787 168.97 71.107 168.07C69.447 167.15 68.137 165.87 67.177 164.23C66.217 162.57 65.737 160.66 65.737 158.5C65.737 156.34 66.217 154.44 67.177 152.8C68.137 151.14 69.447 149.86 71.107 148.96C72.787 148.04 74.667 147.58 76.747 147.58C77.687 147.58 78.697 147.66 79.777 147.82C80.877 147.96 81.947 148.17 82.987 148.45V151.36C81.947 151.02 80.877 150.76 79.777 150.58C78.677 150.38 77.667 150.28 76.747 150.28C75.187 150.28 73.807 150.6 72.607 151.24C71.407 151.88 70.467 152.82 69.787 154.06C69.127 155.3 68.797 156.78 68.797 158.5C68.797 160.22 69.127 161.7 69.787 162.94C70.447 164.18 71.377 165.12 72.577 165.76C73.777 166.4 75.157 166.72 76.717 166.72C77.677 166.72 78.717 166.63 79.837 166.45C80.977 166.27 82.107 166.01 83.227 165.67V168.58C82.327 168.84 81.267 169.04 80.047 169.18C78.847 169.34 77.747 169.42 76.747 169.42ZM96.8139 169.42C94.7339 169.42 92.8639 168.97 91.2039 168.07C89.5439 167.15 88.2339 165.87 87.2739 164.23C86.3339 162.57 85.8639 160.66 85.8639 158.5C85.8639 156.34 86.3339 154.44 87.2739 152.8C88.2339 151.14 89.5439 149.86 91.2039 148.96C92.8639 148.04 94.7339 147.58 96.8139 147.58C98.8939 147.58 100.754 148.04 102.394 148.96C104.054 149.86 105.354 151.14 106.294 152.8C107.254 154.44 107.734 156.34 107.734 158.5C107.734 160.66 107.254 162.57 106.294 164.23C105.354 165.87 104.054 167.15 102.394 168.07C100.754 168.97 98.8939 169.42 96.8139 169.42ZM96.8139 166.72C98.3739 166.72 99.7439 166.4 100.924 165.76C102.124 165.12 103.054 164.18 103.714 162.94C104.374 161.7 104.704 160.22 104.704 158.5C104.704 156.78 104.374 155.3 103.714 154.06C103.054 152.82 102.124 151.88 100.924 151.24C99.7439 150.6 98.3739 150.28 96.8139 150.28C95.2539 150.28 93.8739 150.6 92.6739 151.24C91.4939 151.88 90.5739 152.82 89.9139 154.06C89.2539 155.3 88.9239 156.78 88.9239 158.5C88.9239 160.22 89.2539 161.7 89.9139 162.94C90.5739 164.18 91.4939 165.12 92.6739 165.76C93.8739 166.4 95.2539 166.72 96.8139 166.72ZM109.561 148H112.621L119.671 165.76H119.731L126.841 148H129.841L121.351 169H117.961L109.561 148ZM133.323 148H147.543V150.7H136.263V157.15H146.763V159.85H136.263V166.3H147.543V169H133.323V148ZM152.542 148H159.982C163.142 148 165.452 148.55 166.912 149.65C168.392 150.73 169.132 152.36 169.132 154.54C169.132 155.58 168.842 156.51 168.262 157.33C167.682 158.13 166.932 158.77 166.012 159.25C165.092 159.71 164.162 159.98 163.222 160.06V160.12C164.382 160.24 165.262 160.57 165.862 161.11C166.482 161.65 167.042 162.46 167.542 163.54L170.152 169H166.672L164.722 164.38C164.262 163.32 163.632 162.55 162.832 162.07C162.052 161.59 161.022 161.35 159.742 161.35H155.482V169H152.542V148ZM159.562 158.71C161.882 158.71 163.552 158.39 164.572 157.75C165.592 157.11 166.102 156.06 166.102 154.6C166.102 153.64 165.902 152.88 165.502 152.32C165.102 151.74 164.442 151.32 163.522 151.06C162.622 150.78 161.402 150.64 159.862 150.64H155.482V158.71H159.562ZM186.125 153.07H186.065L186.215 158.53V169H183.275L183.245 148H186.665L195.305 164.08L203.885 148H207.305L207.275 169H204.335V158.53L204.455 153.07H204.395L195.335 169.42H195.215L186.125 153.07ZM223.142 169.42C221.062 169.42 219.192 168.97 217.532 168.07C215.872 167.15 214.562 165.87 213.602 164.23C212.662 162.57 212.192 160.66 212.192 158.5C212.192 156.34 212.662 154.44 213.602 152.8C214.562 151.14 215.872 149.86 217.532 148.96C219.192 148.04 221.062 147.58 223.142 147.58C225.222 147.58 227.082 148.04 228.722 148.96C230.382 149.86 231.682 151.14 232.622 152.8C233.582 154.44 234.062 156.34 234.062 158.5C234.062 160.66 233.582 162.57 232.622 164.23C231.682 165.87 230.382 167.15 228.722 168.07C227.082 168.97 225.222 169.42 223.142 169.42ZM223.142 166.72C224.702 166.72 226.072 166.4 227.252 165.76C228.452 165.12 229.382 164.18 230.042 162.94C230.702 161.7 231.032 160.22 231.032 158.5C231.032 156.78 230.702 155.3 230.042 154.06C229.382 152.82 228.452 151.88 227.252 151.24C226.072 150.6 224.702 150.28 223.142 150.28C221.582 150.28 220.202 150.6 219.002 151.24C217.822 151.88 216.902 152.82 216.242 154.06C215.582 155.3 215.252 156.78 215.252 158.5C215.252 160.22 215.582 161.7 216.242 162.94C216.902 164.18 217.822 165.12 219.002 165.76C220.202 166.4 221.582 166.72 223.142 166.72ZM238.968 148H246.408C249.568 148 251.878 148.55 253.338 149.65C254.818 150.73 255.558 152.36 255.558 154.54C255.558 155.58 255.268 156.51 254.688 157.33C254.108 158.13 253.358 158.77 252.438 159.25C251.518 159.71 250.588 159.98 249.648 160.06V160.12C250.808 160.24 251.688 160.57 252.288 161.11C252.908 161.65 253.468 162.46 253.968 163.54L256.578 169H253.098L251.148 164.38C250.688 163.32 250.058 162.55 249.258 162.07C248.478 161.59 247.448 161.35 246.168 161.35H241.908V169H238.968V148ZM245.988 158.71C248.308 158.71 249.978 158.39 250.998 157.75C252.018 157.11 252.528 156.06 252.528 154.6C252.528 153.64 252.328 152.88 251.928 152.32C251.528 151.74 250.868 151.32 249.948 151.06C249.048 150.78 247.828 150.64 246.288 150.64H241.908V158.71H245.988ZM260.354 148H274.574V150.7H263.294V157.15H273.794V159.85H263.294V166.3H274.574V169H260.354V148Z" fill="white"/>
<path d="M314.083 158H294.25" stroke="white" stroke-width="1.41667" stroke-linecap="round" stroke-linejoin="round"/>
<path d="M320.661 157.696L315.8 154.78C315.044 154.327 314.083 154.871 314.083 155.752V160.248C314.083 161.129 315.044 161.673 315.8 161.22L320.661 158.304C320.89 158.166 320.89 157.834 320.661 157.696Z" fill="white"/>
</svg>
