<svg width="325" height="183" viewBox="0 0 325 183" fill="none" xmlns="http://www.w3.org/2000/svg">
<path d="M12.12 35H66.84V45.8H23.88V75.2H63.72V86H23.88V119H12.12V35ZM113.364 120.68C106.644 120.68 100.564 119.32 95.1244 116.6C89.7644 113.8 85.5644 109.92 82.5244 104.96C79.4844 100 77.9644 94.4 77.9644 88.16C77.9644 81.92 79.4844 76.32 82.5244 71.36C85.5644 66.4 89.7644 62.52 95.1244 59.72C100.564 56.92 106.644 55.52 113.364 55.52C120.004 55.52 126.004 56.92 131.364 59.72C136.724 62.52 140.924 66.4 143.964 71.36C147.004 76.32 148.524 81.92 148.524 88.16C148.524 94.4 147.004 100 143.964 104.96C140.924 109.92 136.724 113.8 131.364 116.6C126.004 119.32 120.004 120.68 113.364 120.68ZM113.364 110.6C118.084 110.6 122.244 109.64 125.844 107.72C129.444 105.8 132.204 103.16 134.124 99.8C136.044 96.36 137.004 92.44 137.004 88.04C137.004 83.72 136.044 79.88 134.124 76.52C132.204 73.08 129.444 70.44 125.844 68.6C122.244 66.68 118.084 65.72 113.364 65.72C106.084 65.72 100.284 67.8 95.9644 71.96C91.6444 76.04 89.4844 81.4 89.4844 88.04C89.4844 94.76 91.6444 100.2 95.9644 104.36C100.284 108.52 106.084 110.6 113.364 110.6ZM196.919 120.68C190.199 120.68 184.119 119.32 178.679 116.6C173.319 113.8 169.119 109.92 166.079 104.96C163.039 100 161.519 94.4 161.519 88.16C161.519 81.92 163.039 76.32 166.079 71.36C169.119 66.4 173.319 62.52 178.679 59.72C184.119 56.92 190.199 55.52 196.919 55.52C203.559 55.52 209.559 56.92 214.919 59.72C220.279 62.52 224.479 66.4 227.519 71.36C230.559 76.32 232.079 81.92 232.079 88.16C232.079 94.4 230.559 100 227.519 104.96C224.479 109.92 220.279 113.8 214.919 116.6C209.559 119.32 203.559 120.68 196.919 120.68ZM196.919 110.6C201.639 110.6 205.799 109.64 209.399 107.72C212.999 105.8 215.759 103.16 217.679 99.8C219.599 96.36 220.559 92.44 220.559 88.04C220.559 83.72 219.599 79.88 217.679 76.52C215.759 73.08 212.999 70.44 209.399 68.6C205.799 66.68 201.639 65.72 196.919 65.72C189.639 65.72 183.839 67.8 179.519 71.96C175.199 76.04 173.039 81.4 173.039 88.04C173.039 94.76 175.199 100.2 179.519 104.36C183.839 108.52 189.639 110.6 196.919 110.6ZM276.514 120.68C270.434 120.68 264.994 119.32 260.194 116.6C255.474 113.88 251.754 110.08 249.034 105.2C246.394 100.32 245.074 94.8 245.074 88.64C245.074 82.24 246.514 76.52 249.394 71.48C252.274 66.44 256.314 62.52 261.514 59.72C266.714 56.92 272.594 55.52 279.154 55.52C288.114 55.52 296.114 58.4 303.154 64.16V35L314.314 32.6V119H303.154L304.474 101.72H304.234C302.314 107.64 298.874 112.28 293.914 115.64C289.034 119 283.234 120.68 276.514 120.68ZM279.994 110.6C287.274 110.6 292.954 108.6 297.034 104.6C301.114 100.6 303.154 95.08 303.154 88.04C303.154 81 301.114 75.52 297.034 71.6C292.954 67.68 287.274 65.72 279.994 65.72C272.634 65.72 266.874 67.68 262.714 71.6C258.634 75.52 256.594 81 256.594 88.04C256.594 95.16 258.634 100.72 262.714 104.72C266.874 108.64 272.634 110.6 279.994 110.6Z" fill="black"/>
<path d="M13.03 148H21.88C25.4 148 28.13 148.92 30.07 150.76C32.03 152.6 33.01 155.18 33.01 158.5C33.01 161.82 32.03 164.4 30.07 166.24C28.13 168.08 25.4 169 21.88 169H13.03V148ZM21.79 166.3C24.49 166.3 26.53 165.64 27.91 164.32C29.29 163 29.98 161.06 29.98 158.5C29.98 155.94 29.29 154 27.91 152.68C26.53 151.36 24.49 150.7 21.79 150.7H15.97V166.3H21.79ZM37.9323 148H40.8723V169H37.9323V148ZM54.3665 169.42C52.7065 169.42 51.2265 169.31 49.9265 169.09C48.6265 168.87 47.3665 168.51 46.1465 168.01V165.1C48.5465 166.18 51.2765 166.72 54.3365 166.72C56.0565 166.72 57.2865 166.51 58.0265 166.09C58.7865 165.65 59.1665 164.93 59.1665 163.93C59.1665 163.01 58.7865 162.23 58.0265 161.59C57.2665 160.93 55.9565 160.27 54.0965 159.61L53.0765 159.25C51.5365 158.71 50.2965 158.22 49.3565 157.78C48.4365 157.32 47.6465 156.71 46.9865 155.95C46.3465 155.17 46.0265 154.2 46.0265 153.04C46.0265 151.3 46.6665 149.96 47.9465 149.02C49.2265 148.06 51.0465 147.58 53.4065 147.58C54.6065 147.58 55.8265 147.68 57.0665 147.88C58.3265 148.08 59.7165 148.39 61.2365 148.81V151.72C59.6565 151.22 58.2465 150.86 57.0065 150.64C55.7665 150.4 54.5465 150.28 53.3465 150.28C51.9865 150.28 50.9265 150.53 50.1665 151.03C49.4265 151.51 49.0565 152.19 49.0565 153.07C49.0565 153.69 49.2865 154.23 49.7465 154.69C50.2065 155.13 50.7865 155.52 51.4865 155.86C52.2065 156.18 53.1765 156.56 54.3965 157L54.9965 157.24C57.5965 158.2 59.4465 159.19 60.5465 160.21C61.6665 161.23 62.2265 162.47 62.2265 163.93C62.2265 165.05 61.9065 166.02 61.2665 166.84C60.6265 167.66 59.7065 168.3 58.5065 168.76C57.3265 169.2 55.9465 169.42 54.3665 169.42ZM76.747 169.42C74.667 169.42 72.787 168.97 71.107 168.07C69.447 167.15 68.137 165.87 67.177 164.23C66.217 162.57 65.737 160.66 65.737 158.5C65.737 156.34 66.217 154.44 67.177 152.8C68.137 151.14 69.447 149.86 71.107 148.96C72.787 148.04 74.667 147.58 76.747 147.58C77.687 147.58 78.697 147.66 79.777 147.82C80.877 147.96 81.947 148.17 82.987 148.45V151.36C81.947 151.02 80.877 150.76 79.777 150.58C78.677 150.38 77.667 150.28 76.747 150.28C75.187 150.28 73.807 150.6 72.607 151.24C71.407 151.88 70.467 152.82 69.787 154.06C69.127 155.3 68.797 156.78 68.797 158.5C68.797 160.22 69.127 161.7 69.787 162.94C70.447 164.18 71.377 165.12 72.577 165.76C73.777 166.4 75.157 166.72 76.717 166.72C77.677 166.72 78.717 166.63 79.837 166.45C80.977 166.27 82.107 166.01 83.227 165.67V168.58C82.327 168.84 81.267 169.04 80.047 169.18C78.847 169.34 77.747 169.42 76.747 169.42ZM96.8139 169.42C94.7339 169.42 92.8639 168.97 91.2039 168.07C89.5439 167.15 88.2339 165.87 87.2739 164.23C86.3339 162.57 85.8639 160.66 85.8639 158.5C85.8639 156.34 86.3339 154.44 87.2739 152.8C88.2339 151.14 89.5439 149.86 91.2039 148.96C92.8639 148.04 94.7339 147.58 96.8139 147.58C98.8939 147.58 100.754 148.04 102.394 148.96C104.054 149.86 105.354 151.14 106.294 152.8C107.254 154.44 107.734 156.34 107.734 158.5C107.734 160.66 107.254 162.57 106.294 164.23C105.354 165.87 104.054 167.15 102.394 168.07C100.754 168.97 98.8939 169.42 96.8139 169.42ZM96.8139 166.72C98.3739 166.72 99.7439 166.4 100.924 165.76C102.124 165.12 103.054 164.18 103.714 162.94C104.374 161.7 104.704 160.22 104.704 158.5C104.704 156.78 104.374 155.3 103.714 154.06C103.054 152.82 102.124 151.88 100.924 151.24C99.7439 150.6 98.3739 150.28 96.8139 150.28C95.2539 150.28 93.8739 150.6 92.6739 151.24C91.4939 151.88 90.5739 152.82 89.9139 154.06C89.2539 155.3 88.9239 156.78 88.9239 158.5C88.9239 160.22 89.2539 161.7 89.9139 162.94C90.5739 164.18 91.4939 165.12 92.6739 165.76C93.8739 166.4 95.2539 166.72 96.8139 166.72ZM109.561 148H112.621L119.671 165.76H119.731L126.841 148H129.841L121.351 169H117.961L109.561 148ZM133.323 148H147.543V150.7H136.263V157.15H146.763V159.85H136.263V166.3H147.543V169H133.323V148ZM152.542 148H159.982C163.142 148 165.452 148.55 166.912 149.65C168.392 150.73 169.132 152.36 169.132 154.54C169.132 155.58 168.842 156.51 168.262 157.33C167.682 158.13 166.932 158.77 166.012 159.25C165.092 159.71 164.162 159.98 163.222 160.06V160.12C164.382 160.24 165.262 160.57 165.862 161.11C166.482 161.65 167.042 162.46 167.542 163.54L170.152 169H166.672L164.722 164.38C164.262 163.32 163.632 162.55 162.832 162.07C162.052 161.59 161.022 161.35 159.742 161.35H155.482V169H152.542V148ZM159.562 158.71C161.882 158.71 163.552 158.39 164.572 157.75C165.592 157.11 166.102 156.06 166.102 154.6C166.102 153.64 165.902 152.88 165.502 152.32C165.102 151.74 164.442 151.32 163.522 151.06C162.622 150.78 161.402 150.64 159.862 150.64H155.482V158.71H159.562ZM186.125 153.07H186.065L186.215 158.53V169H183.275L183.245 148H186.665L195.305 164.08L203.885 148H207.305L207.275 169H204.335V158.53L204.455 153.07H204.395L195.335 169.42H195.215L186.125 153.07ZM223.142 169.42C221.062 169.42 219.192 168.97 217.532 168.07C215.872 167.15 214.562 165.87 213.602 164.23C212.662 162.57 212.192 160.66 212.192 158.5C212.192 156.34 212.662 154.44 213.602 152.8C214.562 151.14 215.872 149.86 217.532 148.96C219.192 148.04 221.062 147.58 223.142 147.58C225.222 147.58 227.082 148.04 228.722 148.96C230.382 149.86 231.682 151.14 232.622 152.8C233.582 154.44 234.062 156.34 234.062 158.5C234.062 160.66 233.582 162.57 232.622 164.23C231.682 165.87 230.382 167.15 228.722 168.07C227.082 168.97 225.222 169.42 223.142 169.42ZM223.142 166.72C224.702 166.72 226.072 166.4 227.252 165.76C228.452 165.12 229.382 164.18 230.042 162.94C230.702 161.7 231.032 160.22 231.032 158.5C231.032 156.78 230.702 155.3 230.042 154.06C229.382 152.82 228.452 151.88 227.252 151.24C226.072 150.6 224.702 150.28 223.142 150.28C221.582 150.28 220.202 150.6 219.002 151.24C217.822 151.88 216.902 152.82 216.242 154.06C215.582 155.3 215.252 156.78 215.252 158.5C215.252 160.22 215.582 161.7 216.242 162.94C216.902 164.18 217.822 165.12 219.002 165.76C220.202 166.4 221.582 166.72 223.142 166.72ZM238.968 148H246.408C249.568 148 251.878 148.55 253.338 149.65C254.818 150.73 255.558 152.36 255.558 154.54C255.558 155.58 255.268 156.51 254.688 157.33C254.108 158.13 253.358 158.77 252.438 159.25C251.518 159.71 250.588 159.98 249.648 160.06V160.12C250.808 160.24 251.688 160.57 252.288 161.11C252.908 161.65 253.468 162.46 253.968 163.54L256.578 169H253.098L251.148 164.38C250.688 163.32 250.058 162.55 249.258 162.07C248.478 161.59 247.448 161.35 246.168 161.35H241.908V169H238.968V148ZM245.988 158.71C248.308 158.71 249.978 158.39 250.998 157.75C252.018 157.11 252.528 156.06 252.528 154.6C252.528 153.64 252.328 152.88 251.928 152.32C251.528 151.74 250.868 151.32 249.948 151.06C249.048 150.78 247.828 150.64 246.288 150.64H241.908V158.71H245.988ZM260.354 148H274.574V150.7H263.294V157.15H273.794V159.85H263.294V166.3H274.574V169H260.354V148Z" fill="black"/>
<path d="M314.083 158H294.25" stroke="black" stroke-width="1.41667" stroke-linecap="round" stroke-linejoin="round"/>
<path d="M320.66 157.696L315.8 154.78C315.044 154.327 314.083 154.871 314.083 155.752V160.248C314.083 161.129 315.044 161.673 315.8 161.22L320.66 158.304C320.89 158.166 320.89 157.834 320.66 157.696Z" fill="black"/>
</svg>
