<svg width="7140" height="2124" viewBox="0 0 7140 2124" fill="none" xmlns="http://www.w3.org/2000/svg">
<path d="M1238.9 499.657H969.584C969.584 182.125 279.308 182.125 279.308 499.657C276.629 522.328 282.412 545.191 295.547 563.863C310.917 581.425 330.782 594.467 353.008 601.587C416.964 626.57 535.382 640.06 662.795 651.552C790.207 663.045 927.113 671.539 1054.03 728C1125.1 760.584 1185.31 812.891 1227.52 878.703C1269.73 944.515 1292.15 1021.06 1292.11 1099.24C1292.11 1776.78 0 1776.78 0 1099.24H269.065C269.065 1405.03 1022.8 1405.03 1022.8 1099.24C1022.8 1010.31 1007.56 1003.31 944.352 974.331C881.145 945.351 765.225 931.11 639.561 920.118C513.897 909.126 378.74 902.38 253.076 852.165C185.375 827.014 125.848 783.816 80.9444 727.25C33.3377 661.052 8.52527 581.178 10.243 499.657C10.243 166.885 317.282 0 624.571 0C931.86 0 1238.9 166.885 1238.9 499.657Z" fill="white"/>
<path d="M2702.63 158.402L2649.66 235.599C2793.11 386.228 2874.31 585.511 2877 793.495C2879.69 1001.48 2803.66 1202.79 2664.16 1357.08C2597.29 1430.38 2515.99 1489.06 2425.36 1529.43C2334.73 1569.8 2236.73 1590.99 2137.52 1591.67C2014.08 1591.38 1892.89 1558.73 1786.01 1496.98L1716.31 1598.91L1509.7 1461.51L1592.89 1336.59C1465.91 1187.78 1396.58 998.329 1397.53 802.71C1397.53 374.754 1723.8 15.5005 2137.52 15.5005C2240 15.4964 2341.24 38.0122 2434.06 81.4552L2481.53 10.5039L2702.63 158.402ZM1666.84 803.459C1666.6 908.465 1695.96 1011.41 1751.53 1100.51L2281.42 309.299C2235.21 292.887 2186.55 284.439 2137.52 284.316C1881.69 284.566 1666.84 510.161 1666.84 803.459ZM2137.52 1322.6C2199.69 1322.06 2261.08 1308.59 2317.76 1283.04C2374.45 1257.49 2425.2 1220.43 2466.79 1174.2C2558.45 1072.54 2608.87 940.337 2608.19 803.459C2609.39 680.476 2569.08 560.682 2493.77 463.443L1938.65 1274.14C2000.11 1305.97 2068.31 1322.59 2137.52 1322.6Z" fill="#E83E3B"/>
<path d="M3544.52 10.5039C3874.05 10.5039 4080.4 265.079 4080.4 514.908C4078.66 615.554 4047.08 713.418 3989.66 796.098C3932.24 878.777 3851.57 942.552 3757.88 979.339C3788.85 1024.56 3816.59 1070.53 3844.57 1114C3891.53 1186.7 4110.88 1721.83 4188.08 1791.53C4210.7 1813.17 4237.5 1829.96 4266.85 1840.87C4296.19 1851.79 4327.45 1856.59 4358.71 1854.99V2123.55C4232.93 2124.94 4110.92 2080.55 4015.45 1998.64C3888.79 1886.72 3669.69 1339.59 3618.72 1260.65C3578.82 1193.96 3534.85 1129.8 3487.06 1068.53C3450.09 1026.81 3434.85 1018.56 3412.11 1018.56H3289.7V1552.2H3019.63V749.496H3544.27C3749.88 749.496 3811.09 634.076 3811.09 514.408C3811.09 394.74 3749.88 279.319 3544.27 279.319H3019.63V10.5039H3544.52Z" fill="white"/>
<path d="M5500.98 499.657H5231.91C5231.91 182.125 4541.64 182.125 4541.64 499.657C4538.96 522.328 4544.74 545.191 4557.88 563.863C4573.19 581.378 4592.96 594.415 4615.09 601.587C4679.29 626.57 4797.71 640.06 4924.88 651.552C5052.04 663.045 5189.44 671.539 5316.11 728C5387.18 760.584 5447.39 812.891 5489.6 878.703C5531.8 944.515 5554.22 1021.06 5554.19 1099.24C5554.19 1777.78 4262.33 1777.78 4262.33 1099.24H4531.4C4531.4 1405.03 5285.13 1405.03 5285.13 1099.24C5285.13 1010.31 5269.64 1003.31 5206.68 974.331C5143.72 945.351 5027.55 931.11 4901.64 920.118C4775.73 909.126 4641.07 902.38 4515.41 852.165C4447.67 827.082 4388.12 783.872 4343.27 727.25C4295.49 661.113 4270.5 581.235 4272.07 499.657C4272.07 166.136 4579.11 0 4886.4 0C5193.69 0 5500.98 166.885 5500.98 499.657Z" fill="white"/>
<path d="M7139.59 803.429C7140.7 1008.2 7064.61 1205.87 6926.49 1357.05C6860.02 1430.88 6778.78 1489.91 6688.04 1530.32C6597.29 1570.73 6499.06 1591.61 6399.72 1591.61C6300.38 1591.61 6202.16 1570.73 6111.41 1530.32C6020.66 1489.91 5939.42 1430.88 5872.96 1357.05C5734.83 1205.87 5658.74 1008.2 5659.86 803.429C5659.86 374.724 5986.88 15.4707 6399.85 15.4707C6812.81 15.4707 7139.59 374.724 7139.59 803.429ZM5928.92 803.429C5928.19 940.409 5978.82 1072.69 6070.82 1174.17C6112.06 1220.83 6162.74 1258.19 6219.51 1283.78C6276.27 1309.37 6337.83 1322.6 6400.1 1322.6C6462.36 1322.6 6523.92 1309.37 6580.69 1283.78C6637.45 1258.19 6688.13 1220.83 6729.37 1174.17C6820.85 1072.44 6871.09 940.241 6870.27 803.429C6870.27 510.131 6655.17 284.536 6399.6 284.536C6144.02 284.536 5928.92 510.131 5928.92 803.429Z" fill="white"/>
</svg>
